<svg id="Capa_1" data-name="Capa 1" xmlns="http://www.w3.org/2000/svg" viewBox="0 0 177.45 55.29"><defs><style>.cls-1{fill:#222d32;fill-rule:evenodd;}</style></defs><path class="cls-1" d="M163,61.12a10.15,10.15,0,0,1-3,.4c-3.76,0-5.64-1.32-5.64-3.94H156a2.22,2.22,0,0,0,.92,2,5.88,5.88,0,0,0,3.09.61c2.29,0,3.43-.44,3.43-1.32,0-.54-.76-.93-2.27-1.18l-2.41-.25a8.56,8.56,0,0,1-2.63-.67,2,2,0,0,1-1.25-1.83,2.33,2.33,0,0,1,1.81-2.19,7.49,7.49,0,0,1,2.88-.51q5.44,0,5.44,3.57h-1.67a1.82,1.82,0,0,0-.78-1.67,5.57,5.57,0,0,0-2.87-.54,6.2,6.2,0,0,0-2.09.31c-.73.25-1.09.58-1.09,1s.74.77,2.21,1.07l2.59.33c2.5.3,3.75,1.14,3.75,2.54,0,1.07-.67,1.83-2,2.28Zm13.78-.65a9.87,9.87,0,0,1-8.74,0,3.93,3.93,0,0,1-2.12-3.59,4,4,0,0,1,2.18-3.61,8.52,8.52,0,0,1,4.37-1,8.35,8.35,0,0,1,4.35,1,4.1,4.1,0,0,1,0,7.22Zm-.89-6.15a8,8,0,0,0-6.91,0,2.87,2.87,0,0,0-1.09,3.91,2.92,2.92,0,0,0,1.09,1.09,7.82,7.82,0,0,0,6.87,0,2.78,2.78,0,0,0,1.49-2.5,2.82,2.82,0,0,0-1.41-2.5Z" transform="translate(-63.5 -6.23)"/><path class="cls-1" d="M189.77,61.24V55.53A1.69,1.69,0,0,0,188.65,54a6.85,6.85,0,0,0-5.4.22,2.35,2.35,0,0,0-1.31,2.14v4.93h-1.61V52.37H182v.94a6.74,6.74,0,0,1,4.23-1.14,8.24,8.24,0,0,1,3.32.6,2.71,2.71,0,0,1,1.9,2.59v5.88Z" transform="translate(-63.5 -6.23)"/><path class="cls-1" d="M211.67,61.31v-1a6.83,6.83,0,0,1-4.21,1.14,8.11,8.11,0,0,1-3.41-.63,2.87,2.87,0,0,1-1.83-2.74V52.44h1.61V58.1q0,2.07,3.63,2.07a5.7,5.7,0,0,0,3-.67,2.55,2.55,0,0,0,1.22-2.28V52.44h1.61v8.87Z" transform="translate(-63.5 -6.23)"/><path class="cls-1" d="M224.71,61.24V55.53A1.71,1.71,0,0,0,223.59,54a6.85,6.85,0,0,0-5.4.22,2.35,2.35,0,0,0-1.31,2.14v4.93h-1.61V52.37h1.61v.94a6.74,6.74,0,0,1,4.23-1.14,8.24,8.24,0,0,1,3.32.6,2.72,2.72,0,0,1,1.9,2.59v5.88Z" transform="translate(-63.5 -6.23)"/><path class="cls-1" d="M238.45,60.47a9.87,9.87,0,0,1-8.74,0,3.93,3.93,0,0,1-2.12-3.59,4,4,0,0,1,2.18-3.61,8.52,8.52,0,0,1,4.37-1,8.37,8.37,0,0,1,4.35,1,4.11,4.11,0,0,1,0,7.22Zm-.89-6.15a8,8,0,0,0-6.91,0,2.87,2.87,0,0,0,0,5,7.82,7.82,0,0,0,6.87,0,2.88,2.88,0,0,0,0-5Z" transform="translate(-63.5 -6.23)"/><path class="cls-1" d="M144.6,26.3q6.17,2.65,6.17,8.55V45h-5V35q0-6.41-13.65-6.4H112.2V45.07h-5V10.84H88.3V45.05h-5V10.84H63.5V6.65h69.26q18.75,0,18.75,10.48,0,6.35-6.91,9.18ZM133,10.84H112.2V24.32h19.48A30.31,30.31,0,0,0,141.42,23c3.4-1.25,5.1-3.13,5.1-5.66Q146.52,10.84,133,10.84Z" transform="translate(-63.5 -6.23)"/><polygon class="cls-1" points="91.4 38.82 91.4 0.42 131.96 0.42 131.96 4.61 96.33 4.61 96.33 16.79 127.88 16.79 127.88 20.92 96.33 20.92 96.33 34.63 132.36 34.63 132.36 38.82 91.4 38.82"/><path class="cls-1" d="M232.9,43.46a42.29,42.29,0,0,1-13.76,2,46.13,46.13,0,0,1-15-2q-9.18-3.24-9.18-11V30.24h5v1.93q0,9.06,19.29,9.07A39.81,39.81,0,0,0,229.84,40c4.08-1.14,6.12-2.89,6.12-5.27A4,4,0,0,0,234,31a18,18,0,0,0-5.61-1.81q-2.16-.45-10.88-1.76Q207.56,26,204.1,24.75q-7.42-2.71-7.42-8.27,0-10.24,21.07-10.25,10.65,0,16.09,2.95,6,3.29,6.16,10.53h-5a10.09,10.09,0,0,0-1.67-5.24,8.24,8.24,0,0,0-4.28-2.75q-3.8-1.31-11.33-1.3-16,0-16,6.06,0,2.77,4,4.25a53.92,53.92,0,0,0,10.54,2.1q13.92,1.76,18.63,3.79,6,2.63,6,8.29T232.9,43.46Z" transform="translate(-63.5 -6.23)"/></svg>